<svg width="24" height="24" viewBox="0 0 24 24" fill="none" xmlns="http://www.w3.org/2000/svg">
<path fill-rule="evenodd" clip-rule="evenodd" d="M7.40886 1.1923C8.55293 1.13963 8.9177 1.12793 11.832 1.12793C14.7463 1.12793 15.1111 1.14061 16.2542 1.1923C17.3973 1.24399 18.1775 1.42638 18.8602 1.6907C19.5752 1.96086 20.2238 2.38318 20.7602 2.92937C21.3064 3.46483 21.7277 4.11245 21.9969 4.82834C22.2622 5.51108 22.4436 6.29134 22.4963 7.43248C22.549 8.5785 22.5607 8.94328 22.5607 11.8566C22.5607 14.7709 22.548 15.1357 22.4963 16.2797C22.4446 17.4209 22.2622 18.2011 21.9969 18.8839C21.7277 19.5999 21.3057 20.2486 20.7602 20.7848C20.2238 21.331 19.5752 21.7523 18.8602 22.0215C18.1775 22.2868 17.3972 22.4682 16.2561 22.5209C15.1111 22.5736 14.7463 22.5853 11.832 22.5853C8.9177 22.5853 8.55293 22.5726 7.40886 22.5209C6.26772 22.4692 5.48746 22.2868 4.80472 22.0215C4.08875 21.7523 3.44006 21.3303 2.9038 20.7848C2.35798 20.249 1.9356 19.6006 1.6661 18.8848C1.40178 18.2021 1.22037 17.4218 1.1677 16.2807C1.11504 15.1347 1.10333 14.7699 1.10333 11.8566C1.10333 8.9423 1.11601 8.57753 1.1677 7.43443C1.2194 6.29134 1.40178 5.51108 1.6661 4.82834C1.936 4.11253 2.3587 3.46416 2.90477 2.92839C3.44027 2.3827 4.08831 1.96032 4.80375 1.6907C5.48648 1.42638 6.26675 1.24497 7.40789 1.1923H7.40886ZM16.1674 3.12346C15.036 3.07177 14.6966 3.06104 11.832 3.06104C8.96744 3.06104 8.62803 3.07177 7.49664 3.12346C6.45011 3.17125 5.88247 3.34584 5.50404 3.49311C5.00369 3.68818 4.64574 3.91933 4.27024 4.29484C3.91429 4.64113 3.64035 5.0627 3.46852 5.52863C3.32124 5.90706 3.14666 6.47471 3.09886 7.52124C3.04717 8.65263 3.03644 8.99204 3.03644 11.8566C3.03644 14.7211 3.04717 15.0606 3.09886 16.192C3.14666 17.2385 3.32124 17.8061 3.46852 18.1846C3.64017 18.6498 3.91424 19.0721 4.27024 19.4184C4.61648 19.7744 5.0388 20.0484 5.50404 20.2201C5.88247 20.3674 6.45011 20.5419 7.49664 20.5897C8.62803 20.6414 8.96647 20.6522 11.832 20.6522C14.6975 20.6522 15.036 20.6414 16.1674 20.5897C17.2139 20.5419 17.7815 20.3674 18.16 20.2201C18.6603 20.025 19.0183 19.7939 19.3938 19.4184C19.7498 19.0721 20.0238 18.6498 20.1955 18.1846C20.3428 17.8061 20.5173 17.2385 20.5651 16.192C20.6168 15.0606 20.6276 14.7211 20.6276 11.8566C20.6276 8.99204 20.6168 8.65263 20.5651 7.52124C20.5173 6.47471 20.3428 5.90706 20.1955 5.52863C20.0004 5.02829 19.7693 4.67034 19.3938 4.29484C19.0474 3.93891 18.6259 3.66498 18.16 3.49311C17.7815 3.34584 17.2139 3.17125 16.1674 3.12346ZM10.4617 15.164C11.227 15.4825 12.0791 15.5255 12.8726 15.2856C13.6661 15.0457 14.3517 14.5377 14.8122 13.8485C15.2728 13.1592 15.4798 12.3315 15.3979 11.5066C15.3159 10.6816 14.9501 9.91078 14.363 9.32561C13.9887 8.95154 13.5361 8.66512 13.0378 8.48696C12.5396 8.3088 12.008 8.24334 11.4814 8.29528C10.9547 8.34722 10.4462 8.51528 9.99233 8.78735C9.53846 9.05942 9.15056 9.42874 8.85655 9.86872C8.56255 10.3087 8.36975 10.8084 8.29204 11.3318C8.21433 11.8553 8.25365 12.3894 8.40715 12.8958C8.56066 13.4022 8.82454 13.8683 9.1798 14.2605C9.53505 14.6527 9.97284 14.9613 10.4617 15.164ZM7.93262 7.95721C8.44469 7.44514 9.05261 7.03894 9.72167 6.76181C10.3907 6.48467 11.1078 6.34204 11.832 6.34204C12.5562 6.34204 13.2733 6.48467 13.9423 6.76181C14.6114 7.03894 15.2193 7.44514 15.7314 7.95721C16.2435 8.46929 16.6497 9.07721 16.9268 9.74627C17.2039 10.4153 17.3466 11.1324 17.3466 11.8566C17.3466 12.5808 17.2039 13.2979 16.9268 13.9669C16.6497 14.636 16.2435 15.2439 15.7314 15.756C14.6972 16.7902 13.2946 17.3712 11.832 17.3712C10.3694 17.3712 8.9668 16.7902 7.93262 15.756C6.89844 14.7218 6.31744 13.3191 6.31744 11.8566C6.31744 10.394 6.89844 8.99139 7.93262 7.95721ZM18.5696 7.16329C18.6965 7.04359 18.7981 6.89964 18.8683 6.73997C18.9386 6.5803 18.9761 6.40816 18.9787 6.23373C18.9812 6.0593 18.9487 5.88614 18.8832 5.72449C18.8176 5.56284 18.7202 5.41599 18.5969 5.29264C18.4735 5.16929 18.3267 5.07194 18.165 5.00636C18.0034 4.94078 17.8302 4.9083 17.6558 4.91084C17.4814 4.91338 17.3092 4.9509 17.1495 5.02116C16.9899 5.09143 16.8459 5.19302 16.7262 5.31991C16.4934 5.5667 16.366 5.8945 16.3709 6.23373C16.3759 6.57296 16.5128 6.89691 16.7527 7.1368C16.9926 7.3767 17.3166 7.51366 17.6558 7.5186C17.995 7.52355 18.3228 7.39609 18.5696 7.16329Z" fill="#9A1D64"/>
</svg>
