<svg width="24" height="24" viewBox="0 0 24 24" fill="none" xmlns="http://www.w3.org/2000/svg">
<path d="M8.54129 22.9437C10.4961 22.9437 12.0826 21.3799 12.0826 19.4531V15.9624H8.54129C6.5865 15.9624 5 17.5262 5 19.4531C5 21.3799 6.5865 22.9437 8.54129 22.9437Z" fill="#0ACF83"/>
<path d="M5 12.4721C5 10.5453 6.5865 8.98145 8.54129 8.98145H12.0826V15.9628H8.54129C6.5865 15.9628 5 14.399 5 12.4721Z" fill="#811FFF"/>
<path d="M5 5.49067C5 3.56382 6.5865 2 8.54129 2H12.0826V8.98133H8.54129C6.5865 8.98133 5 7.41751 5 5.49067Z" fill="#F24E1E"/>
<path d="M12.0826 2H15.6239C17.5787 2 19.1652 3.56382 19.1652 5.49067C19.1652 7.41751 17.5787 8.98133 15.6239 8.98133H12.0826V2Z" fill="#FF7262"/>
<path d="M19.1652 12.4721C19.1652 14.399 17.5787 15.9628 15.6239 15.9628C13.6691 15.9628 12.0826 14.399 12.0826 12.4721C12.0826 10.5453 13.6691 8.98145 15.6239 8.98145C17.5787 8.98145 19.1652 10.5453 19.1652 12.4721Z" fill="#59CFFF"/>
</svg>
