<svg width="15" height="22" viewBox="0 0 15 22" fill="none" xmlns="http://www.w3.org/2000/svg">
<path d="M3.9813 21.5204C5.93609 21.5204 7.52259 19.9566 7.52259 18.0297V14.5391H3.9813C2.0265 14.5391 0.440002 16.1029 0.440002 18.0297C0.440002 19.9566 2.0265 21.5204 3.9813 21.5204Z" fill="#0ACF83"/>
<path d="M0.440002 11.0488C0.440002 9.12192 2.0265 7.55811 3.9813 7.55811H7.52259V14.5394H3.9813C2.0265 14.5394 0.440002 12.9756 0.440002 11.0488Z" fill="#811FFF"/>
<path d="M0.440002 4.06733C0.440002 2.14048 2.0265 0.57666 3.9813 0.57666H7.52259V7.55799H3.9813C2.0265 7.55799 0.440002 5.99417 0.440002 4.06733Z" fill="#F24E1E"/>
<path d="M7.52259 0.57666H11.0639C13.0187 0.57666 14.6052 2.14048 14.6052 4.06733C14.6052 5.99417 13.0187 7.55799 11.0639 7.55799H7.52259V0.57666Z" fill="#FF7262"/>
<path d="M14.6052 11.0488C14.6052 12.9756 13.0187 14.5394 11.0639 14.5394C9.10909 14.5394 7.52259 12.9756 7.52259 11.0488C7.52259 9.12192 9.10909 7.55811 11.0639 7.55811C13.0187 7.55811 14.6052 9.12192 14.6052 11.0488Z" fill="#59CFFF"/>
</svg>
