<svg width="24" height="24" viewBox="0 0 24 24" fill="none" xmlns="http://www.w3.org/2000/svg">
<path d="M11.832 1.02539C17.8669 1.02539 22.7496 5.90815 22.7496 11.9339C22.7496 17.9596 17.8669 22.8515 11.832 22.8515C5.79711 22.8515 0.914352 17.9688 0.914352 11.943C0.914352 5.9173 5.79711 1.02539 11.832 1.02539Z" fill="#E74D89"/>
<path d="M11.832 23.6286C5.3765 23.6286 0.127991 18.3892 0.127991 11.9429C0.127991 5.48742 5.3765 0.248047 11.832 0.248047C18.2875 0.248047 23.536 5.48742 23.536 11.9338C23.536 18.3801 18.2875 23.6286 11.832 23.6286ZM21.6981 13.5339C21.3598 13.4242 18.6075 12.6104 15.4712 13.1042C16.7788 16.6885 17.3091 19.6145 17.4097 20.218C19.659 18.7093 21.2592 16.3136 21.6981 13.5339ZM15.7364 21.1415C15.5901 20.2637 15.0049 17.2097 13.6059 13.5705C13.5876 13.5796 13.5602 13.5888 13.5419 13.5888C7.90018 15.5547 5.87941 19.4591 5.69653 19.8248C7.38813 21.1415 9.51862 21.9279 11.832 21.9279C13.2127 21.937 14.5385 21.6536 15.7364 21.1415ZM4.40727 18.627C4.63586 18.2429 7.37898 13.7076 12.5361 12.0343C12.6641 11.9886 12.8012 11.952 12.9292 11.9155C12.6824 11.3486 12.408 10.7816 12.1154 10.2239C7.12296 11.7143 2.27677 11.6503 1.83787 11.6412C1.83787 11.7417 1.82873 11.8423 1.82873 11.9429C1.83787 14.5123 2.80711 16.8531 4.40727 18.627ZM2.04818 9.90385C2.49622 9.91299 6.61091 9.93128 11.2925 8.68773C9.63749 5.74344 7.84532 3.27463 7.58929 2.91802C4.78216 4.23472 2.69738 6.81326 2.04818 9.90385ZM9.49119 2.24138C9.7655 2.60713 11.5851 5.07595 13.2218 8.08424C16.7788 6.74925 18.2783 4.73763 18.4612 4.4816C16.6965 2.91802 14.374 1.96707 11.832 1.96707C11.0273 1.96707 10.241 2.06765 9.49119 2.24138ZM19.5676 5.63372C19.3573 5.91717 17.684 8.06595 13.9899 9.57467C14.2185 10.0501 14.4471 10.5348 14.6574 11.0194C14.7306 11.1931 14.8037 11.3668 14.8769 11.5314C18.2052 11.1108 21.5061 11.7875 21.8353 11.8515C21.8078 9.50152 20.9666 7.33445 19.5676 5.63372Z" fill="#B2215A"/>
</svg>
